<?xml version="1.0" encoding="utf-8"?>
<!-- Generator: Adobe Illustrator 24.2.1, SVG Export Plug-In . SVG Version: 6.00 Build 0)  -->
<svg version="1.1" id="Layer_1" xmlns="http://www.w3.org/2000/svg" xmlns:xlink="http://www.w3.org/1999/xlink" x="0px" y="0px"
	 viewBox="0 0 93.3 16.5" style="enable-background:new 0 0 93.3 16.5;" xml:space="preserve">
<style type="text/css">
	.st0{fill:#F8B84E;}
</style>
<path class="st0" d="M13.9,16.4c-0.6,0.4-4.6-2.3-5.3-2.3c-0.8,0-4.7,2.7-5.4,2.3c-0.6-0.4,0.8-5.1,0.6-5.8C3.6,9.9-0.2,6.9,0,6.2
	C0.3,5.5,5.1,5.4,5.7,5c0.6-0.4,2.2-5,3-5c0.8,0,2.3,4.6,2.9,5s5.4,0.6,5.7,1.3c0.2,0.7-3.6,3.6-3.9,4.3
	C13.2,11.4,14.5,16,13.9,16.4z"/>
<path class="st0" d="M32.9,16.4c-0.6,0.4-4.6-2.3-5.3-2.3c-0.8,0-4.7,2.7-5.4,2.3c-0.6-0.4,0.8-5.1,0.6-5.8
	c-0.2-0.7-4.1-3.7-3.8-4.4c0.2-0.7,5.1-0.8,5.7-1.2c0.6-0.4,2.2-5,3-5c0.8,0,2.3,4.6,2.9,5s5.4,0.6,5.7,1.3c0.2,0.7-3.6,3.6-3.9,4.3
	C32.2,11.4,33.5,16,32.9,16.4z"/>
<path class="st0" d="M51.9,16.4c-0.6,0.4-4.6-2.3-5.3-2.3c-0.8,0-4.7,2.7-5.4,2.3c-0.6-0.4,0.8-5.1,0.6-5.8
	c-0.2-0.7-4.1-3.7-3.8-4.4c0.2-0.7,5.1-0.8,5.7-1.2c0.6-0.4,2.2-5,3-5c0.8,0,2.3,4.6,2.9,5c0.6,0.4,5.4,0.6,5.7,1.3
	c0.2,0.7-3.6,3.6-3.9,4.3C51.2,11.4,52.5,16,51.9,16.4z"/>
<path class="st0" d="M70.9,16.4c-0.6,0.4-4.6-2.3-5.3-2.3c-0.8,0-4.7,2.7-5.4,2.3c-0.6-0.4,0.8-5.1,0.6-5.8
	c-0.2-0.7-4.1-3.7-3.8-4.4c0.2-0.7,5.1-0.8,5.7-1.2c0.6-0.4,2.2-5,3-5c0.8,0,2.3,4.6,2.9,5s5.4,0.6,5.7,1.3c0.2,0.7-3.6,3.6-3.9,4.3
	C70.2,11.4,71.5,16,70.9,16.4z"/>
<path class="st0" d="M89.9,16.4c-0.6,0.4-4.6-2.3-5.3-2.3c-0.8,0-4.7,2.7-5.4,2.3c-0.6-0.4,0.8-5.1,0.6-5.8S75.8,6.9,76,6.2
	c0.2-0.7,5.1-0.8,5.7-1.2c0.6-0.4,2.2-5,3-5c0.8,0,2.3,4.6,2.9,5s5.4,0.6,5.7,1.3c0.2,0.7-3.6,3.6-3.9,4.3
	C89.2,11.4,90.5,16,89.9,16.4z"/>
</svg>
