<?xml version="1.0" encoding="utf-8"?>
<!-- Generator: Adobe Illustrator 24.2.1, SVG Export Plug-In . SVG Version: 6.00 Build 0)  -->
<svg version="1.1" id="SvgjsSvg1001" xmlns:svgjs="http://svgjs.com/svgjs"
	 xmlns="http://www.w3.org/2000/svg" xmlns:xlink="http://www.w3.org/1999/xlink" x="0px" y="0px" viewBox="0 0 252 252"
	 style="enable-background:new 0 0 252 252;" xml:space="preserve">
<style type="text/css">
	.st0{fill:#18377B;}
</style>
<g id="SvgjsG1008">
	<path class="st0" d="M126,0C56.5,0,0,56.5,0,126s56.5,126,126,126s126-56.5,126-126S195.5,0,126,0z M126,244.8
		C60.5,244.8,7.2,191.5,7.2,126S60.5,7.2,126,7.2S244.8,60.5,244.8,126S191.5,244.8,126,244.8z"/>
	<path class="st0" d="M126,18C66.4,18,18,66.4,18,126s48.4,108,108,108s108-48.4,108-108S185.6,18,126,18z M126,226.8
		c-55.6,0-100.8-45.2-100.8-100.8S70.4,25.2,126,25.2S226.8,70.4,226.8,126S181.6,226.8,126,226.8z"/>
	<path class="st0" d="M144.6,127c0.1,0,0.2,0,0.4,0c1.8,0,3.4-1.4,3.6-3.2c1.7-16.2-10.4-23.7-17.1-25.5c-1.9-0.5-3.9,0.7-4.4,2.6
		c-0.5,1.9,0.7,3.9,2.6,4.4c0.5,0.1,13.2,3.6,11.7,17.7C141.2,125.1,142.6,126.8,144.6,127z M165.7,102.5c0.8,0,1.6-0.3,2.3-0.8
		c12.7-10.3,9.4-24.2,5.9-30.1c-1-1.7-3.2-2.3-4.9-1.3c-1.7,1-2.3,3.2-1.3,4.9c0.7,1.2,6.5,12.1-4.3,20.8c-1.5,1.3-1.8,3.5-0.5,5.1
		C163.6,102.1,164.6,102.5,165.7,102.5z M79.8,130.7c2,0.1,3.7-1.2,3.9-3.2c0.2-2-1.2-3.7-3.2-4c-16.2-1.6-23.7,10.4-25.5,17.1
		c-0.5,1.9,0.7,3.9,2.6,4.4c0.3,0.1,0.6,0.1,0.9,0.1c1.6,0,3.1-1.1,3.5-2.7C62.2,141.9,65.7,129.2,79.8,130.7z M171.6,164.4
		c-1.2,0.7-12.1,6.5-20.8-4.3c-1.3-1.5-3.5-1.8-5.1-0.5c-1.5,1.3-1.8,3.5-0.5,5.1c5.6,6.9,12.2,9.1,18.1,9.1c4.9,0,9.3-1.5,12-3.1
		c1.7-1,2.3-3.2,1.3-4.9C175.5,164,173.4,163.4,171.6,164.4z M95.7,102.6c0.6,0,1.2-0.2,1.8-0.5c1.7-1,2.3-3.2,1.3-4.9
		c-0.7-1.2-6.5-12.1,4.3-20.8c1.5-1.3,1.8-3.5,0.5-5.1c-1.3-1.5-3.5-1.8-5.1-0.5c-12.7,10.3-9.4,24.2-5.9,30.1
		C93.2,101.9,94.4,102.6,95.7,102.6z M142.8,187.6c-0.5,0.3-11.8,6.8-20.8-4.3c-1.3-1.5-3.5-1.8-5.1-0.5c-1.5,1.3-1.8,3.5-0.5,5.1
		c5.6,6.9,12.2,9.1,18.1,9.1c4.9,0,9.3-1.5,12-3.1c1.7-1,2.3-3.2,1.3-4.9C146.7,187.2,144.5,186.6,142.8,187.6z M119.9,152.3
		c1.6,0,3.1-1.1,3.5-2.7c0.5-1.9-0.7-3.9-2.6-4.4c-0.5-0.1-13.2-3.6-11.7-17.7c0.2-2-1.2-3.7-3.2-4c-2-0.2-3.7,1.2-3.9,3.2
		c-1.7,16.2,10.4,23.7,17.1,25.5C119.3,152.2,119.6,152.3,119.9,152.3z M91,159.5c-7.9,0-14.4,6.5-14.4,14.4
		c0,7.9,6.5,14.4,14.4,14.4s14.4-6.5,14.4-14.4C105.4,165.9,98.9,159.5,91,159.5z M91,181.1c-4,0-7.2-3.2-7.2-7.2
		c0-4,3.2-7.2,7.2-7.2c4,0,7.2,3.2,7.2,7.2C98.2,177.8,95,181.1,91,181.1z M181,112.7c-9.9,0-18,8.1-18,18s8.1,18,18,18
		s18-8.1,18-18S190.9,112.7,181,112.7z M181,141.5c-6,0-10.8-4.8-10.8-10.8c0-6,4.8-10.8,10.8-10.8s10.8,4.8,10.8,10.8
		C191.8,136.6,187,141.5,181,141.5z M64.8,110.1c6.5,0,11.8-5.3,11.8-11.8c0-6.5-5.3-11.8-11.8-11.8c-6.5,0-11.8,5.3-11.8,11.8
		C53,104.8,58.3,110.1,64.8,110.1z M64.8,93.7c2.5,0,4.6,2.1,4.6,4.6c0,2.5-2.1,4.6-4.6,4.6c-2.5,0-4.6-2.1-4.6-4.6
		C60.2,95.7,62.3,93.7,64.8,93.7z M130.6,83.9c7.9,0,14.4-6.5,14.4-14.4s-6.5-14.4-14.4-14.4s-14.4,6.5-14.4,14.4
		S122.7,83.9,130.6,83.9z M130.6,62.3c4,0,7.2,3.2,7.2,7.2s-3.2,7.2-7.2,7.2s-7.2-3.2-7.2-7.2S126.6,62.3,130.6,62.3z"/>
</g>
</svg>
