<?xml version="1.0" encoding="utf-8"?>
<!-- Generator: Adobe Illustrator 24.2.1, SVG Export Plug-In . SVG Version: 6.00 Build 0)  -->
<svg version="1.1" id="SvgjsSvg1051" xmlns:svgjs="http://svgjs.com/svgjs"
	 xmlns="http://www.w3.org/2000/svg" xmlns:xlink="http://www.w3.org/1999/xlink" x="0px" y="0px" viewBox="0 0 216 216"
	 style="enable-background:new 0 0 216 216;" xml:space="preserve">
<style type="text/css">
	.st0{fill:#18377B;}
</style>
<g id="SvgjsG1053">
	<path class="st0" d="M165.9,0c-4.6-0.1-9.2,1.6-12.6,5L108,50.3L62.7,5c-3.5-3.5-8-5.1-12.6-5C45.5,0.1,41,1.9,37.5,5.4L5.4,37.5
		c-7,7-7.3,18.3-0.4,25.2L50.3,108L5,153.3c-6.9,6.9-6.6,18.3,0.4,25.3l32.1,32.1c7,7,18.4,7.3,25.3,0.4l45.3-45.3l45.3,45.3
		c6.9,6.9,18.3,6.6,25.3-0.4l32.1-32.1c7-7,7.3-18.3,0.4-25.2L165.7,108L211,62.7c6.9-6.9,6.6-18.3-0.4-25.3L178.5,5.4
		C175.1,1.9,170.5,0.1,165.9,0z M50.2,8.9c2.3,0,4.5,0.8,6.2,2.5l45.3,45.3l-45,45L11.4,56.4C8,53,8.1,47.5,11.7,43.8l32.1-32.1
		C45.7,9.9,48,9,50.2,8.9z M165.8,8.9c2.3,0,4.5,1,6.4,2.8v0l32.1,32.1c3.7,3.7,3.7,9.2,0.3,12.5l-48,48c-0.4,0.3-0.7,0.6-1,1
		l-50.3,50.3c-0.4,0.3-0.8,0.7-1.1,1.1l-47.9,47.9c-3.4,3.4-8.8,3.3-12.5-0.4l-32.1-32.1c-3.7-3.7-3.7-9.2-0.4-12.5L159.6,11.4
		C161.3,9.7,163.5,8.9,165.8,8.9z M50.3,23.9c-3.5,0-7,1.3-9.6,3.9l-6.4,6.4c-1.8,1.7-1.9,4.6-0.1,6.4s4.6,1.9,6.4,0.1
		c0,0,0.1-0.1,0.1-0.1l6.4-6.4c1.8-1.8,4.6-1.8,6.5,0l25.7,25.7c1.7,1.8,4.6,1.9,6.4,0.1c1.8-1.7,1.9-4.6,0.1-6.4
		c0,0-0.1-0.1-0.1-0.1L59.9,27.8c0,0,0,0,0,0C57.2,25.2,53.8,23.9,50.3,23.9z M178.5,32.9c-2.5,0-4.5,2-4.5,4.5
		c0,1.2,0.5,2.4,1.4,3.2l6.4,6.4c1.8,1.8,1.8,4.6,0,6.5l-25.7,25.7c-1.8,1.7-1.9,4.6-0.1,6.4c1.7,1.8,4.6,1.9,6.4,0.1
		c0,0,0.1-0.1,0.1-0.1l25.7-25.7c5.3-5.3,5.3-13.9,0-19.2l-6.4-6.4C180.9,33.4,179.7,32.9,178.5,32.9z M108.1,77.8
		c-1.2,0-2.4,0.5-3.3,1.3c-1.8,1.8-1.8,4.6,0,6.4c0,0,0,0,0,0c1.8,1.8,4.6,1.8,6.4,0c1.8-1.8,1.8-4.6,0-6.4c0,0,0,0,0,0
		C110.4,78.3,109.3,77.8,108.1,77.8z M95.2,90.6c-1.2,0-2.4,0.5-3.3,1.3c-1.8,1.8-1.8,4.6,0,6.4c0,0,0,0,0,0c1.8,1.8,4.6,1.8,6.4,0
		c0,0,0,0,0,0c1.8-1.8,1.8-4.6,0-6.4c0,0,0,0,0,0C97.6,91.1,96.4,90.7,95.2,90.6z M114.5,97.1c-1.2,0-2.4,0.5-3.3,1.3
		c-1.8,1.8-1.8,4.6,0,6.4c0,0,0,0,0,0c1.8,1.8,4.6,1.8,6.4,0c1.8-1.8,1.8-4.6,0-6.4c0,0,0,0,0,0C116.8,97.6,115.7,97.1,114.5,97.1z
		 M82.4,103.5c-1.2,0-2.4,0.5-3.3,1.3c-1.8,1.8-1.8,4.6,0,6.4c0,0,0,0,0,0c1.8,1.8,4.6,1.8,6.4,0c0,0,0,0,0,0c1.8-1.8,1.8-4.6,0-6.4
		c0,0,0,0,0,0C84.7,104,83.6,103.5,82.4,103.5z M133.7,103.5c-1.2,0-2.4,0.5-3.3,1.3c-1.8,1.8-1.8,4.6,0,6.4c0,0,0,0,0,0
		c1.8,1.8,4.6,1.8,6.4,0c0,0,0,0,0,0c1.8-1.8,1.8-4.6,0-6.4c0,0,0,0,0,0C136,104,134.9,103.5,133.7,103.5z M101.7,109.9
		c-1.2,0-2.4,0.5-3.3,1.3c-1.8,1.8-1.8,4.6,0,6.4c1.8,1.8,4.6,1.8,6.4,0c0,0,0,0,0,0c1.8-1.8,1.8-4.6,0-6.4
		C104,110.4,102.8,109.9,101.7,109.9z M159.3,114.4l45.3,45.3c3.4,3.4,3.3,8.8-0.4,12.5l-32.1,32.1c-3.7,3.7-9.2,3.7-12.5,0.4
		l-45.3-45.3L159.3,114.4z M120.9,116.3c-1.2,0-2.4,0.5-3.3,1.3c-1.8,1.8-1.8,4.6,0,6.4c0,0,0,0,0,0c1.8,1.8,4.6,1.8,6.4,0
		c0,0,0,0,0,0c1.8-1.8,1.8-4.6,0-6.4c0,0,0,0,0,0C123.2,116.8,122.1,116.3,120.9,116.3z M108.1,129.1c-1.2,0-2.4,0.5-3.3,1.3
		c-1.8,1.8-1.8,4.6,0,6.4c0,0,0,0,0,0c1.8,1.8,4.6,1.8,6.4,0c1.8-1.8,1.8-4.6,0-6.4c0,0,0,0,0,0
		C110.4,129.6,109.3,129.1,108.1,129.1z M56.6,129.2c-1.2,0-2.3,0.5-3.1,1.4l-25.7,25.7c-5.3,5.3-5.3,13.9,0,19.2l6.4,6.4
		c1.7,1.8,4.6,1.9,6.4,0.1c1.8-1.7,1.9-4.6,0.1-6.4c0,0-0.1-0.1-0.1-0.1l-6.4-6.4c-1.8-1.8-1.8-4.6,0-6.5l25.7-25.7
		c1.8-1.7,1.8-4.6,0.1-6.4C59.1,129.6,57.8,129.1,56.6,129.2z M133.6,154.8c-2.5,0-4.5,2-4.5,4.5c0,1.2,0.5,2.4,1.4,3.2l25.6,25.7
		c5.3,5.3,13.9,5.3,19.2,0l6.4-6.4c1.8-1.7,1.9-4.6,0.1-6.4c-1.7-1.8-4.6-1.9-6.4-0.1c0,0-0.1,0.1-0.1,0.1l-6.4,6.4
		c-1.8,1.8-4.6,1.8-6.5,0l-25.7-25.7C136,155.3,134.8,154.8,133.6,154.8z"/>
</g>
</svg>
