<?xml version="1.0" encoding="utf-8"?>
<!-- Generator: Adobe Illustrator 24.2.1, SVG Export Plug-In . SVG Version: 6.00 Build 0)  -->
<svg version="1.1" id="SvgjsSvg1001" xmlns:svgjs="http://svgjs.com/svgjs" xmlns="http://www.w3.org/2000/svg"
	xmlns:xlink="http://www.w3.org/1999/xlink" x="0px" y="0px" viewBox="0 0 288 288"
	style="enable-background:new 0 0 288 288;" xml:space="preserve">
	<style type="text/css">
		.st0 {
			fill: white;
		}
	</style>
	<g id="SvgjsG1008">
		<path class="st0" d="M171.7,144l84.5-84.3c7.7-7.7,7.7-20.2,0-27.9c-7.7-7.7-20.2-7.7-27.9,0L144,116.3L59.7,31.8
		c-7.7-7.7-20.2-7.7-27.9,0s-7.7,20.2,0,27.9l84.5,84.3l-84.5,84.3c-7.7,7.6-7.8,20.1-0.1,27.8c0,0,0.1,0.1,0.1,0.1
		c7.6,7.7,20.1,7.8,27.8,0.1c0,0,0.1-0.1,0.1-0.1l84.3-84.5l84.3,84.5c7.6,7.7,20.1,7.8,27.8,0.1c0,0,0.1-0.1,0.1-0.1
		c7.7-7.6,7.8-20.1,0.1-27.8c0,0-0.1-0.1-0.1-0.1L171.7,144z" />
	</g>
</svg>