<?xml version="1.0" encoding="utf-8"?>
<!-- Generator: Adobe Illustrator 24.2.1, SVG Export Plug-In . SVG Version: 6.00 Build 0)  -->
<svg version="1.1" id="SvgjsSvg1051" xmlns:svgjs="http://svgjs.com/svgjs"
	 xmlns="http://www.w3.org/2000/svg" xmlns:xlink="http://www.w3.org/1999/xlink" x="0px" y="0px" viewBox="0 0 216 216"
	 style="enable-background:new 0 0 216 216;" xml:space="preserve">
<style type="text/css">
	.st0{fill:#18377B;}
</style>
<g id="SvgjsG1058">
	<path class="st0" d="M139.1,39.4L108,70.5L76.8,39.4c-17.5-17.5-45.9-17.5-63.3,0C5.1,47.8,0.3,59.1,0.3,71s4.7,23.2,13.1,31.7
		l35,35c1.1,1.1,2.5,1.6,3.9,1.6c1.4,0,2.8-0.6,3.9-1.6L108,86l51.7,51.7c1.1,1.1,2.5,1.6,3.9,1.6c1.4,0,2.8-0.6,3.9-1.6l35-35
		c8.4-8.4,13.1-19.7,13.1-31.7s-4.7-23.2-13.1-31.7C185,21.9,156.6,21.9,139.1,39.4z M52.4,126.1L21.2,94.9
		C14.8,88.5,11.3,80,11.3,71c0-9.1,3.5-17.5,9.9-23.9c6.6-6.6,15.2-9.9,23.9-9.9s17.3,3.3,23.9,9.9l31.1,31.1L52.4,126.1z"/>
	<circle class="st0" cx="88.2" cy="137.1" r="7.4"/>
	<path class="st0" d="M113.2,124.1c-2,0-3.6,1.6-3.6,3.6s1.6,3.6,3.6,3.6c2,0,3.6-1.6,3.6-3.6S115.2,124.1,113.2,124.1z
		 M138.1,148.7c-4.9,0-8.9,4-8.9,8.9c0,4.9,4,8.9,8.9,8.9c4.9,0,8.9-4,8.9-8.9C147,152.6,142.9,148.7,138.1,148.7z M102.1,160.7
		c-2.2,0-3.9,1.8-3.9,3.9c0,2.2,1.8,3.9,3.9,3.9c2.2,0,3.9-1.8,3.9-3.9C106,162.4,104.2,160.7,102.1,160.7z M75.5,168.4
		c-3.9,0-7.1,3.2-7.1,7.1s3.2,7.1,7.1,7.1c3.9,0,7.1-3.2,7.1-7.1S79.4,168.4,75.5,168.4z"/>
	<circle class="st0" cx="109.5" cy="186.1" r="3.6"/>
	<path class="st0" d="M128.8,177.4c-3.4,0-6.2,2.8-6.2,6.2s2.8,6.2,6.2,6.2c3.4,0,6.2-2.8,6.2-6.2S132.2,177.4,128.8,177.4z"/>
</g>
</svg>
