<?xml version="1.0" encoding="utf-8"?>
<!-- Generator: Adobe Illustrator 24.2.1, SVG Export Plug-In . SVG Version: 6.00 Build 0)  -->
<svg version="1.1" id="SvgjsSvg1051" xmlns:svgjs="http://svgjs.com/svgjs"
	 xmlns="http://www.w3.org/2000/svg" xmlns:xlink="http://www.w3.org/1999/xlink" x="0px" y="0px" viewBox="0 0 216 216"
	 style="enable-background:new 0 0 216 216;" xml:space="preserve">
<style type="text/css">
	.st0{fill:none;stroke:#18377B;stroke-width:8.64;stroke-linejoin:round;stroke-miterlimit:28.8;}
	.st1{fill:none;stroke:#18377B;stroke-width:8.64;stroke-linecap:round;stroke-linejoin:round;stroke-miterlimit:28.8;}
	.st2{fill:none;stroke:#18377B;stroke-width:8.6256;stroke-linecap:round;stroke-miterlimit:28.8;}
</style>
<g id="SvgjsG1067">
	<path class="st0" d="M191.2,44.5c-11.8-66.6-69.7-31.6-83.2-19.7C94.4,12.9,36.5-22.1,24.8,44.5c-12.6,71,41.7,47.1,28.7,102
		c-4.4,18.6-2.2,64.5,13.2,64.5s2.9-58.2,41.3-77.6c38.5,19.3,25.9,77.6,41.3,77.6s17.7-45.9,13.2-64.5
		C149.5,91.7,203.8,115.5,191.2,44.5z"/>
	<path class="st1" d="M107.9,24.8c10.4,8.7,18.4,8.2,29.7,8.7"/>
	<path class="st2" d="M52.3,23.5c-8.8,9-16.7,46.8-4.1,62.8"/>
</g>
</svg>
