<?xml version="1.0" encoding="utf-8"?>
<!-- Generator: Adobe Illustrator 24.2.1, SVG Export Plug-In . SVG Version: 6.00 Build 0)  -->
<svg version="1.1" id="SvgjsSvg1026" xmlns:svgjs="http://svgjs.com/svgjs"
	 xmlns="http://www.w3.org/2000/svg" xmlns:xlink="http://www.w3.org/1999/xlink" x="0px" y="0px" viewBox="0 0 288 288"
	 style="enable-background:new 0 0 288 288;" xml:space="preserve">
<style type="text/css">
	.st0{fill:#0384CE;}
</style>
<g id="SvgjsG1028">
	<path class="st0" d="M198.4,32.5c-21.1,0-41.1,9.7-54.4,25.5c-13.3-15.8-33.2-25.5-54.4-25.5c-37.4,0-66.4,29.2-66.4,66.8
		c0,46.2,41.1,83.2,103.3,140.4l17.5,15.8l17.5-15.8c62.2-57.1,103.3-94.2,103.3-140.4C264.8,61.7,235.8,32.5,198.4,32.5z
		 M151.5,223.7L149,226l-5,4.5l-5-4.5l-2.4-2.2c-29.3-26.9-54.6-50.1-71.3-70.8C49,132.7,41.8,116.2,41.8,99.3
		c0-13.3,4.9-25.5,13.8-34.4c8.9-8.9,21-13.8,34.1-13.8c15.2,0,30.2,7.1,40.1,18.9L144,86.9L158.2,70c10-11.8,25-18.9,40.1-18.9
		c13.1,0,25.2,4.9,34.1,13.8c8.9,8.9,13.8,21.2,13.8,34.4c0,16.9-7.2,33.4-23.5,53.5C206,173.6,180.7,196.8,151.5,223.7z"/>
</g>
</svg>
