<?xml version="1.0" encoding="utf-8"?>
<!-- Generator: Adobe Illustrator 24.2.1, SVG Export Plug-In . SVG Version: 6.00 Build 0)  -->
<svg version="1.1" id="SvgjsSvg1051" xmlns:svgjs="http://svgjs.com/svgjs"
	 xmlns="http://www.w3.org/2000/svg" xmlns:xlink="http://www.w3.org/1999/xlink" x="0px" y="0px" viewBox="0 0 216 216"
	 style="enable-background:new 0 0 216 216;" xml:space="preserve">
<style type="text/css">
	.st0{fill:#18377B;}
</style>
<g id="SvgjsG1081">
	<path class="st0" d="M53.6,22.8c-30.2,0-55.5,24.3-55,54.6c0.4,24.4,18.4,47.9,38.3,67.8s42.6,36.5,54.6,45.3l4,2.7l4-2.7
		c12-8.8,35.1-25.8,55-45.8c2-2,3.8-4.1,5.7-6.2l-5.3-11.9l-0.9-2.2c-3.1,3.6-6.3,7.1-9.7,10.6c-5.4,5.4-10.9,10.7-16.3,15.4
		c-12.2,10.5-24,18.8-32.6,25.1c-10.6-7.7-25.5-19.1-40.5-33c-2.6-2.4-5.3-4.9-7.9-7.5c-18.9-18.9-34-40.5-34.4-57.6
		C12.3,55,31,36.9,53.6,36.9c15.6,0,28.7,8.4,35.7,21.1l6.2,11.4l6.2-11.4c7-12.8,20.1-21.1,35.7-21.1c3,0,7.9,0.8,10.4,1.6
		c17.7,4.5,30.6,19.9,30.6,39l11-16.7c-7.4-21.9-27.8-37.9-52.1-37.9c-17.5,0-31.8,9.2-41.8,22C85.4,32.1,71.1,22.8,53.6,22.8z
		 M146.5,54.3L124,106.7l-13.6-20.4l-17.5,35.1H69v14.1h32.6l10.6-21.2l14.6,21.8L146.5,90l20,46.5l16.7-26.3l7.4,25.4h26.8v-14.1
		h-16.3l-13.2-45.1l-19,30L146.5,54.3z"/>
</g>
</svg>
