<?xml version="1.0" encoding="utf-8"?>
<!-- Generator: Adobe Illustrator 24.2.1, SVG Export Plug-In . SVG Version: 6.00 Build 0)  -->
<svg version="1.1" id="SvgjsSvg1099" xmlns:svgjs="http://svgjs.com/svgjs"
	 xmlns="http://www.w3.org/2000/svg" xmlns:xlink="http://www.w3.org/1999/xlink" x="0px" y="0px" viewBox="0 0 288 288"
	 style="enable-background:new 0 0 288 288;" xml:space="preserve">
<style type="text/css">
	.st0{fill:#FFFFFF;}
</style>
<g id="SvgjsG1101">
	<path class="st0" d="M209.9,63.2L209.9,63.2c-8.2,0-14.8,6.6-14.8,14.8s6.6,14.8,14.8,14.8c8.2,0,14.8-6.6,14.8-14.8
		S218.1,63.2,209.9,63.2L209.9,63.2z M266.8,93.1c-0.2-10.2-2.2-20.4-5.7-30c-3.1-8.2-8-15.7-14.3-21.9
		c-6.1-6.3-13.6-11.2-21.9-14.2c-9.6-3.6-19.7-5.6-30-5.8c-13.1-0.7-17.3-0.7-50.9-0.7s-37.8,0-50.9,0.7c-10.3,0.2-20.4,2.2-30,5.8
		c-8.3,3-15.7,7.9-21.9,14.2C34.9,47.4,30.1,54.8,27,63.1c-3.6,9.6-5.6,19.7-5.8,30c-0.7,13.1-0.7,17.3-0.7,50.9s0,37.8,0.7,50.9
		c0.2,10.3,2.2,20.4,5.8,30c3,8.3,7.9,15.7,14.2,21.9c6.1,6.3,13.6,11.2,21.9,14.2c9.6,3.6,19.7,5.6,30,5.8
		c13.1,0.7,17.3,0.7,50.9,0.7s37.8,0,50.9-0.7c10.3-0.2,20.4-2.2,30-5.8c8.3-3,15.7-7.9,21.9-14.2c6.3-6.1,11.2-13.6,14.3-21.9
		c3.5-9.6,5.4-19.8,5.7-30c0-13.1,0.7-17.3,0.7-50.9S267.5,106.2,266.8,93.1z M244.5,193.4c-0.1,7.8-1.5,15.6-4.2,23
		c-2,5.4-5.1,10.2-9.3,14.2c-4,4.1-8.9,7.2-14.2,9.3c-7.4,2.7-15.1,4.1-23,4.2c-12.3,0.6-16.9,0.7-49.4,0.7s-37.1,0-49.4-0.7
		c-8.1,0.2-16.2-1.1-24-3.7c-5.1-2.1-9.7-5.3-13.6-9.3c-4.1-4-7.2-8.8-9.1-14.2c-3-7.5-4.7-15.4-4.9-23.5c0-12.3-0.7-16.9-0.7-49.4
		s0-37.1,0.7-49.4c0.1-8,1.5-16,4.3-23.5c2.2-5.2,5.5-9.9,9.8-13.6c3.8-4.2,8.4-7.6,13.6-9.9c7.5-2.7,15.5-4.1,23.5-4.2
		c12.3,0,16.9-0.7,49.4-0.7s37.1,0,49.4,0.7c7.8,0.1,15.6,1.5,23,4.2c5.6,2.1,10.6,5.5,14.7,9.9c4,3.8,7.2,8.4,9.3,13.6
		c2.7,7.5,4.2,15.5,4.2,23.5c0.6,12.3,0.7,16.9,0.7,49.4S245.1,181.1,244.5,193.4z M144,80.6c-35,0.1-63.3,28.5-63.2,63.5
		c0.1,35,28.5,63.3,63.5,63.2c34.9-0.1,63.2-28.4,63.2-63.4c0.1-34.9-28.2-63.3-63.1-63.4C144.2,80.6,144.1,80.6,144,80.6z
		 M144,185.1c-22.7,0-41.1-18.4-41.1-41.1s18.4-41.1,41.1-41.1s41.1,18.4,41.1,41.1l0,0C185.1,166.7,166.7,185.1,144,185.1z"/>
</g>
</svg>
