<?xml version="1.0" encoding="utf-8"?>
<!-- Generator: Adobe Illustrator 24.2.1, SVG Export Plug-In . SVG Version: 6.00 Build 0)  -->
<svg version="1.1" id="SvgjsSvg1104" xmlns:svgjs="http://svgjs.com/svgjs"
	 xmlns="http://www.w3.org/2000/svg" xmlns:xlink="http://www.w3.org/1999/xlink" x="0px" y="0px" viewBox="0 0 288 288"
	 style="enable-background:new 0 0 288 288;" xml:space="preserve">
<style type="text/css">
	.st0{fill:#0384CE;}
</style>
<g id="SvgjsG1106">
	<path class="st0" d="M144,24c-53,0-96,43-96,96c0,64.8,84.6,138,88.2,141.1c4.5,3.8,11.1,3.8,15.6,0C156,258,240,184.8,240,120
		C240,67,197,24,144,24z M144,235.8c-25.6-24-72-75.7-72-115.8c0-39.8,32.2-72,72-72s72,32.2,72,72C216,160.1,169.6,211.9,144,235.8
		z M144,72c-26.5,0-48,21.5-48,48s21.5,48,48,48s48-21.5,48-48S170.5,72,144,72z M144,144c-13.3,0-24-10.7-24-24s10.7-24,24-24
		s24,10.7,24,24S157.3,144,144,144z"/>
</g>
</svg>
