<svg id="Layer_1" data-name="Layer 1" xmlns="http://www.w3.org/2000/svg" viewBox="0 0 46.34 40.05"><defs><style>.cls-1{fill:#fff;}.cls-2{fill:#18377b;}</style></defs><path class="cls-1" d="M24.5,16.71c.17.27.34.52.53.83l0,2.12a4.55,4.55,0,0,0-.52,0,1.62,1.62,0,0,0-.94.44,1.84,1.84,0,0,0-.61,1.48v.25a2,2,0,0,0,.85,1.61,3.53,3.53,0,0,0,1.07.52l-.19.91a10.73,10.73,0,0,1-4.78-2.4A14.83,14.83,0,0,1,18,20.6a19.77,19.77,0,0,1-1.75-2.51s0-.1-.1-.11a2.76,2.76,0,0,0,.14,1,10.64,10.64,0,0,0,2.08,4.22c.37.48.8.92,1.17,1.4a5.69,5.69,0,0,1,1.17,2.78,8.9,8.9,0,0,1,0,1.46,11.7,11.7,0,0,0,0,2.05c0,.3,0,.61.08.92a19.94,19.94,0,0,0,.61,2.86,24.7,24.7,0,0,0,.87,2.4A6.06,6.06,0,0,1,21,36.6a17.24,17.24,0,0,1-3.34-2.14,24.53,24.53,0,0,1-2.78-2.61,26.51,26.51,0,0,1-2.4-3,21.93,21.93,0,0,1-1.75-3A14.37,14.37,0,0,1,9.65,23a8.25,8.25,0,0,1-.23-2.66,8.58,8.58,0,0,1,1-3.46,8.14,8.14,0,0,1,3-3.17,8.36,8.36,0,0,1,3.14-1.1,7.4,7.4,0,0,1,1.88,0,7.18,7.18,0,0,1,3.36,1.26A9.3,9.3,0,0,1,24.5,16.71Z" transform="translate(-1.83 -4.98)"/><path class="cls-1" d="M27.71,25.15c-.22,0-.45.05-.67,0-.6-.06-1.2-.06-1.8-.15a5.78,5.78,0,0,1-.57-.12l.19-.91a2.71,2.71,0,0,0,1.49,0,1.61,1.61,0,0,0,1.11-1,2.54,2.54,0,0,0,0-1.74,2,2,0,0,0-.87-1.11A3,3,0,0,0,25,19.66l0-2.12c.2-.36.37-.67.55-1a9.45,9.45,0,0,1,1.77-2.16,6.87,6.87,0,0,1,3.43-1.67,9,9,0,0,1,2.07-.11,8.62,8.62,0,0,1,3.34.84,7.47,7.47,0,0,1,3.13,2.92,9.56,9.56,0,0,1,1.16,2.85,5.34,5.34,0,0,1,.17,1.2c0,.5,0,1,0,1.5a7.71,7.71,0,0,1-.21,1.26,14,14,0,0,1-1.63,3.86,22.76,22.76,0,0,1-2.19,3.09c-.22.26-.45.51-.68.76-.57.62-1.17,1.21-1.8,1.78-.84.77-1.72,1.49-2.63,2.18C30,36,28.44,37.06,26.87,38.1l-.19.12a2.7,2.7,0,0,1-.32-.84,14.33,14.33,0,0,1-.43-1.59q-.13-.7-.24-1.41a11,11,0,0,1-.05-2,7.19,7.19,0,0,1,.78-3.15,4.64,4.64,0,0,1,1.79-1.86,7.41,7.41,0,0,1,1.69-.72,13.24,13.24,0,0,0,3.49-1.53,7.87,7.87,0,0,0,1.94-1.79c.08-.1.21-.19.18-.36s-.18,0-.26,0c-.81.38-1.64.74-2.49,1.05a19.12,19.12,0,0,1-2.68.78A11.83,11.83,0,0,1,27.71,25.15Z" transform="translate(-1.83 -4.98)"/><path class="cls-2" d="M27.47,21.22a2.54,2.54,0,0,1,0,1.74,1.61,1.61,0,0,1-1.11,1,2.71,2.71,0,0,1-1.49,0,3.53,3.53,0,0,1-1.07-.52,2,2,0,0,1-.85-1.61v-.25a1.84,1.84,0,0,1,.61-1.48,1.62,1.62,0,0,1,.94-.44,4.55,4.55,0,0,1,.52,0,3,3,0,0,1,1.59.45A2,2,0,0,1,27.47,21.22Z" transform="translate(-1.83 -4.98)"/><path class="cls-2" d="M30.08,24.85a19.12,19.12,0,0,0,2.68-.78c.85-.31,1.68-.67,2.49-1.05.08,0,.16-.13.26,0s-.1.26-.18.36a7.87,7.87,0,0,1-1.94,1.79,13.24,13.24,0,0,1-3.49,1.53,7.41,7.41,0,0,0-1.69.72,4.64,4.64,0,0,0-1.79,1.86,7.19,7.19,0,0,0-.78,3.15,11,11,0,0,0,.05,2q.11.7.24,1.41a14.33,14.33,0,0,0,.43,1.59,2.7,2.7,0,0,0,.32.84l.19-.12c1.57-1,3.13-2.1,4.63-3.23.91-.69,1.79-1.41,2.63-2.18.63-.57,1.23-1.16,1.8-1.78.23-.25.46-.5.68-.76a22.76,22.76,0,0,0,2.19-3.09,14,14,0,0,0,1.63-3.86,7.71,7.71,0,0,0,.21-1.26c0-.5,0-1,0-1.5a5.34,5.34,0,0,0-.17-1.2,9.56,9.56,0,0,0-1.16-2.85,7.47,7.47,0,0,0-3.13-2.92,8.62,8.62,0,0,0-3.34-.84,9,9,0,0,0-2.07.11,6.87,6.87,0,0,0-3.43,1.67,9.45,9.45,0,0,0-1.77,2.16c-.18.3-.35.61-.55,1-.19-.31-.36-.56-.53-.83a9.3,9.3,0,0,0-2.68-2.87,7.18,7.18,0,0,0-3.36-1.26,7.4,7.4,0,0,0-1.88,0,8.36,8.36,0,0,0-3.14,1.1,8.14,8.14,0,0,0-3,3.17,8.58,8.58,0,0,0-1,3.46A8.25,8.25,0,0,0,9.65,23a14.37,14.37,0,0,0,1.09,2.91,21.93,21.93,0,0,0,1.75,3,26.51,26.51,0,0,0,2.4,3,24.53,24.53,0,0,0,2.78,2.61A17.24,17.24,0,0,0,21,36.6a6.06,6.06,0,0,0,1.29.5,24.7,24.7,0,0,1-.87-2.4,19.94,19.94,0,0,1-.61-2.86c0-.31,0-.62-.08-.92a11.7,11.7,0,0,1,0-2.05,8.9,8.9,0,0,0,0-1.46,5.69,5.69,0,0,0-1.17-2.78c-.37-.48-.8-.92-1.17-1.4A10.64,10.64,0,0,1,16.29,19a2.76,2.76,0,0,1-.14-1c.06,0,.07.07.1.11A19.77,19.77,0,0,0,18,20.6a14.83,14.83,0,0,0,1.89,1.91,10.73,10.73,0,0,0,4.78,2.4,5.78,5.78,0,0,0,.57.12c.6.09,1.2.09,1.8.15.22,0,.45,0,.67,0A11.83,11.83,0,0,0,30.08,24.85Zm18-8.22a12.85,12.85,0,0,1,.06,2.63,15.91,15.91,0,0,1-1,4.6A23.81,23.81,0,0,1,46,26.4a25,25,0,0,1-2.17,3.48c-.53.72-1.1,1.41-1.68,2.09-.9,1-1.86,2-2.85,2.94q-1.06,1-2.16,2c-.87.75-1.75,1.47-2.65,2.16-.73.56-1.47,1.1-2.21,1.63-2,1.44-4.16,2.76-6.29,4.06A1.83,1.83,0,0,1,25,45a1.46,1.46,0,0,1-.79-.23l-2.17-1.32q-1.85-1.14-3.64-2.37c-1.44-1-2.83-2-4.19-3.08-.81-.64-1.6-1.3-2.36-2-.6-.55-1.2-1.09-1.77-1.67-.87-.87-1.7-1.77-2.49-2.71a33.38,33.38,0,0,1-2.8-3.79,20,20,0,0,1-2.35-5A14.94,14.94,0,0,1,2,20.52a16.18,16.18,0,0,1-.11-2.87A12.9,12.9,0,0,1,2,16.29,16.51,16.51,0,0,1,2.54,14a13.19,13.19,0,0,1,1.08-2.54A11.5,11.5,0,0,1,5.17,9.28,11,11,0,0,1,6.71,7.85,13.1,13.1,0,0,1,9.14,6.38a15.57,15.57,0,0,1,3.7-1.21A12.64,12.64,0,0,1,16,5a9.06,9.06,0,0,1,2.24.43,12.77,12.77,0,0,1,4.24,2.34,21.72,21.72,0,0,1,2.06,2,1,1,0,0,0,.56.4A17.57,17.57,0,0,1,26.65,8.5a12.12,12.12,0,0,1,6-3.23A9.35,9.35,0,0,1,34.45,5c.26,0,.51,0,.77,0a18.54,18.54,0,0,1,2.34.23,12.47,12.47,0,0,1,6,2.85A12.55,12.55,0,0,1,46.08,11a13.36,13.36,0,0,1,1.63,3.78A15,15,0,0,1,48.07,16.63Z" transform="translate(-1.83 -4.98)"/></svg>