<?xml version="1.0" encoding="utf-8"?>
<!-- Generator: Adobe Illustrator 24.2.1, SVG Export Plug-In . SVG Version: 6.00 Build 0)  -->
<svg version="1.1" id="SvgjsSvg1051" xmlns:svgjs="http://svgjs.com/svgjs"
	 xmlns="http://www.w3.org/2000/svg" xmlns:xlink="http://www.w3.org/1999/xlink" x="0px" y="0px" viewBox="0 0 216 216"
	 style="enable-background:new 0 0 216 216;" xml:space="preserve">
<style type="text/css">
	.st0{fill:#18377B;}
</style>
<g id="SvgjsG1086">
	<path class="st0" d="M190.8,144h-66.9c-2.2,0-3.7,1.5-3.7,3.7v11c0,2.2,1.5,3.7,3.7,3.7h8.4c-2.2,1.5-4.4,2.2-6.6,3.4
		c-5.1-4.4-11.4-7-18.4-7c-7.4,0-14.4,2.9-19.4,8.1c-20.6-7.4-34.6-26.9-34.6-48.9c0-21,12.9-40.1,32-48.2c1.9,0.7,4,1.5,6.3,1.5
		c4.1,0,7.8-1.5,10.6-3.7l34.2,49.7c0.7,0.7,1.5,1.5,2.2,1.5c0.3,0,0.3,0,0.7,0c0.7,0,1.5-0.3,2.2-0.7l1.5-1.1
		c1.1,1.1,2.6,2.2,4,2.9l-0.7,4.7c-0.3,1.9,1.1,4,2.9,4.4c0.3,0,0.3,0,0.7,0c1.9,0,3.4-1.1,3.7-2.9l0.7-4.4c1.9,0,3.7-0.3,5.6-1.1
		l1.9,3.4c0.7,1.1,1.9,1.9,3.4,1.9c0.7,0,1.1,0,1.9-0.3c1.9-1.1,2.2-3.4,1.5-5.1l-2.6-4c1.1-1.5,1.9-3.4,2.6-5.1h4.4
		c2.2,0,3.7-1.5,3.7-3.7c0-2.2-1.5-3.7-3.7-3.7h-4.4c-0.3-0.7-0.3-1.9-0.7-2.6l1.9-1.5c0.7-0.7,1.5-1.5,1.5-2.2c0-1.1,0-1.9-0.7-2.6
		l-55.6-81.3c-0.7-0.7-1.5-1.5-2.2-1.5c-1.1,0-1.9,0-2.6,0.7l-6.9,4.8l-12.6-18c-1.1-1.9-3.3-2.2-5.1-1.1L73.1,6.8
		C72,7.2,71.3,8,71.3,9c0,1.1,0,1.8,0.7,2.5l12.6,18.1l-2.2,1.5c-0.7,0.7-1.5,1.5-1.5,2.2c0,1.1,0,1.9,0.7,2.5l2.6,3.7
		c-1.9,1.1-3.7,2.6-4.7,4.4C48.6,55,28,84.4,28,117.2c0,30.9,17.7,58.1,45.3,70.6H32.7c-2.2,0-3.7,1.5-3.7,3.7v9.9l-6.9,10.3
		c-0.7,1.1-0.7,2.6,0,3.7c0.7,2.2,1.9,2.9,3.3,2.9h130.2c1.5,0,2.5-0.7,3.4-1.9c0.8-1.1,0.7-2.5,0-3.7l-7-10.3v-10
		c0-2.2-1.5-3.7-3.7-3.7h-9.6c12.5-5.9,23.1-15,30.9-26.1h21.3c2.2,0,3.7-1.5,3.7-3.7v-11C194.5,145.5,193,144,190.8,144z
		 M107,166.1c5.9,0,11,2.2,15,6.6c3.7,3.7,5.6,8.8,5.6,14v0.3v0.3c0,0.3,0,0.7,0,1.1H86.8l0,0c0-0.7,0-1.1,0-1.9
		c0-2.5,0.4-4.7,1.1-7c0.7-2.2,1.9-4.4,3.7-6.3l0,0C95.6,169,101.1,166.1,107,166.1z M87.1,62.7c-2.9-1.5-4.7-4.7-4.7-8.1
		c0-1.9,0.4-3.7,1.5-5.1c1.5-2.2,3.4-3.7,5.9-4.1c0.7,0,1.1,0,1.9,0c5.1,0,9.2,4.1,9.2,9.2c0,1.9-0.4,3.4-1.5,4.7L99,60
		C96.3,63.9,91.2,64.9,87.1,62.7z M160.7,105.1L160.7,105.1c0.3,0.7,0.3,1.1,0.3,1.9c0,4-3.4,7.4-7.4,7.4c-1.5,0-3.4-0.3-4.4-1.5
		l4.4-2.9L160.7,105.1z M110.6,20.8l51.1,74.6l-21.3,14.7l-33.5-48.9c0,0,0,0,0-0.4c0.4-0.7,0.7-1.9,0.7-2.6c0-0.3,0-0.3,0-0.7
		c0.4-1.1,0.4-1.8,0.4-2.9c0-1.1,0-2.2-0.4-3.3c0,0,0,0,0-0.4c-1.5-6.6-6.6-11.4-13.2-12.5c-0.4,0-0.4,0-0.7,0
		c-0.7,0-1.5-0.4-2.2-0.4H91h-0.3l-1.9-2.6l2.2-1.5l0,0l12.1-8.4l0,0L110.6,20.8z M79.8,10.5l6.3-4l10.3,15.1L90.1,26L79.8,10.5z
		 M34.6,117.9c0-27.6,15.8-52.2,40.4-64c0,0.4,0,0.4,0,0.7c0,0.7,0,1.9,0.4,2.6c0,0.3,0,0.3,0,0.7c0,0.7,0.3,1.1,0.3,1.9
		c0,0.4,0,0.4,0.4,0.7c0.3,0.7,0.3,1.1,0.7,1.9c0,0.4,0.4,0.4,0.4,0.7c0.3,0.7,0.7,1.5,1.5,2.2c-19.9,10-32.7,30.5-32.7,53
		c0,24.6,14.7,46,37.1,55.2v0.3c-0.3,0.7-0.7,1.5-1.1,1.9c0,0.3-0.4,0.7-0.4,1.1c-0.4,0.3-0.4,1.1-0.7,1.5c0,0.3-0.4,0.7-0.4,1.1
		s-0.4,0.7-0.4,1.5c0,0.3-0.3,0.7-0.3,1.1c0,0.3,0,0.7-0.4,1.1c0,0.3,0,0.7,0,1.1C52.5,173,34.6,147.3,34.6,117.9z M32.4,211
		l2.5-3.7h111.5l2.5,3.7H32.4z M144.5,199.9H36.4v-3.7h47.1h47.1h13.6v3.7H144.5z M187.1,155.1h-19.9c-1.1,0-2.5,0.7-2.9,1.9
		c-7.4,11-17.7,19.9-29.8,25.4V182c0-0.3-0.3-1.1-0.3-1.5c0-0.3,0-0.7-0.3-1.1c0-0.7-0.3-1.1-0.3-1.9c0-0.3-0.3-0.7-0.3-1.1
		c-0.3-0.7-0.3-1.1-0.7-1.9c0-0.3,0-0.3-0.3-0.7c-0.3-0.7-0.7-1.5-1.5-2.2l0,0c5.6-2.6,10.7-5.9,15-10.3c1.1-1.1,1.5-2.5,1.1-4
		c-0.7-1.5-1.9-2.2-3.4-2.2H128v-3.8h59.6v3.7H187.1z"/>
</g>
</svg>
