<?xml version="1.0" encoding="utf-8"?>
<!-- Generator: Adobe Illustrator 24.2.1, SVG Export Plug-In . SVG Version: 6.00 Build 0)  -->
<svg version="1.1" id="SvgjsSvg1130" xmlns:svgjs="http://svgjs.com/svgjs"
	 xmlns="http://www.w3.org/2000/svg" xmlns:xlink="http://www.w3.org/1999/xlink" x="0px" y="0px" viewBox="0 0 288 288"
	 style="enable-background:new 0 0 288 288;" xml:space="preserve">
<style type="text/css">
	.st0{fill:#0384CE;}
</style>
<g id="SvgjsG1132">
	<path class="st0" d="M219.6,180c-19.8-1.8-30.6,25.2-45,32.4C151.2,225,108,180,108,180s-45-43.2-34.2-66.6c9-14.4,36-25.2,34.2-45
		c-1.8-18-41.4-82.8-61.2-64.8C3.6,43.2,0,59.4,0,91.8c-1.8,55.8,70.2,126,70.2,126c7.2,7.2,70.2,72,126,70.2
		c32.4,0,48.6-3.6,88.2-46.8C302.4,221.4,239.4,181.8,219.6,180L219.6,180z"/>
</g>
</svg>
