<?xml version="1.0" encoding="utf-8"?>
<!-- Generator: Adobe Illustrator 24.2.1, SVG Export Plug-In . SVG Version: 6.00 Build 0)  -->
<svg version="1.1" id="SvgjsSvg1011" xmlns:svgjs="http://svgjs.com/svgjs"
	 xmlns="http://www.w3.org/2000/svg" xmlns:xlink="http://www.w3.org/1999/xlink" x="0px" y="0px" viewBox="0 0 288 288"
	 style="enable-background:new 0 0 288 288;" xml:space="preserve">
<style type="text/css">
	.st0{fill:#18377B;fill-opacity:0;}
	.st1{fill:#18377B;}
</style>
<g id="SvgjsG1013">
	<g>
		<g>
			<rect class="st0" width="288" height="288"/>
			<path class="st1" d="M248.5,231.5l-40.8-40.7C220.9,174,228,153.3,228,132c0-53-43-96-96-96s-96,43-96,96s43,96,96,96
				c21.3,0,42-7.1,58.8-20.3l40.7,40.8c4.7,4.7,12.3,4.7,17,0.1c0,0,0,0,0.1-0.1C253.2,243.9,253.3,236.3,248.5,231.5
				C248.6,231.5,248.5,231.5,248.5,231.5L248.5,231.5z M60,132c0-39.8,32.2-72,72-72s72,32.2,72,72s-32.2,72-72,72S60,171.8,60,132z
				"/>
		</g>
	</g>
</g>
</svg>
