<?xml version="1.0" encoding="utf-8"?>
<!-- Generator: Adobe Illustrator 24.2.1, SVG Export Plug-In . SVG Version: 6.00 Build 0)  -->
<svg version="1.1" id="SvgjsSvg1026" xmlns:svgjs="http://svgjs.com/svgjs"
	 xmlns="http://www.w3.org/2000/svg" xmlns:xlink="http://www.w3.org/1999/xlink" x="0px" y="0px" viewBox="0 0 209.2 266.1"
	 style="enable-background:new 0 0 209.2 266.1;" xml:space="preserve">
<style type="text/css">
	.st0{fill:#12A05C;}
</style>
<g id="SvgjsG1028">
	<path class="st0" d="M129.3,106.3l-39.8,39.8l-16.3-16.3c-2.5-2.5-6.6-2.5-9.1,0c-2.6,2.5-2.6,6.7-0.1,9.2l20.9,20.9
		c1.2,1.2,2.9,1.9,4.6,1.9s3.4-0.7,4.6-1.9l44.5-44.5c2.5-2.6,2.5-6.7-0.1-9.2C136,103.6,131.8,103.7,129.3,106.3z M209,25.3
		c-0.7-3.5-4.2-5.8-7.7-5.1c-32.3,6.8-65.9-0.1-93-19c-2.3-1.6-5.3-1.6-7.5,0c-27,18.9-60.7,25.8-93,19c-0.5-0.1-0.9-0.1-1.3-0.1
		C2.9,20.1,0,23,0,26.6v104.8c0,38.4,18.5,74.4,49.7,96.8l51.1,36.7c1.1,0.8,2.4,1.2,3.8,1.2c1.4,0,2.7-0.4,3.8-1.2l51.1-36.7
		c31.2-22.4,49.6-58.5,49.7-96.8V26.6C209.1,26.2,209,25.7,209,25.3z M196,131.5c0,34.2-16.5,66.3-44.2,86.2l-47.3,33.9l-47.3-33.9
		c-27.7-20-44.2-52-44.2-86.2v-97c31.9,4.8,64.5-2.3,91.5-20c27,17.6,59.6,24.7,91.5,20V131.5z"/>
</g>
</svg>
