<?xml version="1.0" encoding="utf-8"?>
<!-- Generator: Adobe Illustrator 24.2.1, SVG Export Plug-In . SVG Version: 6.00 Build 0)  -->
<svg version="1.1" id="SvgjsSvg1115" xmlns:svgjs="http://svgjs.com/svgjs"
	 xmlns="http://www.w3.org/2000/svg" xmlns:xlink="http://www.w3.org/1999/xlink" x="0px" y="0px" viewBox="0 0 276 246"
	 style="enable-background:new 0 0 276 246;" xml:space="preserve">
<style type="text/css">
	.st0{fill:#18377B;}
</style>
<g id="SvgjsG1122">
	<path class="st0" d="M228.4,73.6c-0.2-4.4-3.8-7.8-8.2-7.8H187V41.3c0-18-14.6-32.7-32.7-32.7h-32.7c-18,0-32.7,14.6-32.7,32.7
		v24.5H55.8c-4.4,0-8,3.4-8.2,7.8L40,220.1c-0.5,9,6.4,16.7,15.4,17.2c0.3,0,0.6,0,0.9,0h163.4c9,0,16.3-7.3,16.4-16.3
		c0-0.3,0-0.6,0-0.9L228.4,73.6z M56.3,221l7.3-138.9H89v26.8c-7.8,4.5-10.5,14.5-6,22.3c4.5,7.8,14.5,10.5,22.3,6s10.5-14.5,6-22.3
		c-1.4-2.5-3.5-4.5-6-6V41.3c0-9,7.3-16.3,16.3-16.3h32.7c9,0,16.3,7.3,16.3,16.3v24.5h-40.8c-4.5,0-8.2,3.7-8.2,8.2
		s3.7,8.2,8.2,8.2h40.8v26.8c-7.8,4.5-10.5,14.5-6,22.3c4.5,7.8,14.5,10.5,22.3,6s10.5-14.5,6-22.3c-1.4-2.5-3.5-4.5-6-6V82.1h25.4
		l7.3,138.9H56.3z"/>
</g>
</svg>
