<?xml version="1.0" encoding="utf-8"?>
<!-- Generator: Adobe Illustrator 24.2.1, SVG Export Plug-In . SVG Version: 6.00 Build 0)  -->
<svg version="1.1" id="SvgjsSvg1051" xmlns:svgjs="http://svgjs.com/svgjs"
	 xmlns="http://www.w3.org/2000/svg" xmlns:xlink="http://www.w3.org/1999/xlink" x="0px" y="0px" viewBox="0 0 216 216"
	 style="enable-background:new 0 0 216 216;" xml:space="preserve">
<style type="text/css">
	.st0{fill:#18377B;}
</style>
<g id="SvgjsG1074">
	<path class="st0" d="M31.9,213.5c-2.7,0-5.3-0.9-7.3-2.7l-4.1-3.4c-4.9-4.1-5.6-11.3-1.6-16.2l5.7-6.8c1.1-1.3,3-1.4,4.3-0.4
		L46,198.2c1.3,1.1,1.4,3,0.4,4.3l-5.7,6.8C38.5,211.9,35.3,213.5,31.9,213.5z M27.3,190.7l-3.7,4.3c-1.9,2.2-1.6,5.6,0.7,7.5
		l4.1,3.4c2.2,1.9,5.6,1.6,7.5-0.7l3.7-4.3L27.3,190.7z"/>
	<path class="st0" d="M44,203.7c-0.8,0-1.4-0.2-2-0.8l-17.1-14.2c-1.3-1.1-1.4-3-0.4-4.3l26.9-32.5l12-38.2c0.1-0.3,0.3-0.8,0.6-1.1
		l85-102.6c4.2-5.1,10.6-7.7,18-7.6c7.1,0.2,14.3,3.1,20.5,8.1c12.8,10.6,16.2,27.5,7.8,37.7l-85,102.6c-0.2,0.3-0.6,0.6-1,0.8
		L73.2,170l-26.9,32.5C45.9,203.3,45,203.7,44,203.7z M31.3,185.9l12.3,10.2L69,165.6c0.2-0.3,0.6-0.6,1-0.8l35.9-18.4l84.6-102
		c6.2-7.6,3.1-20.5-6.9-28.9c-5-4.1-10.9-6.6-16.7-6.7c-5.5-0.2-10.1,1.7-13,5.2l-84.8,102l-12,38.2c-0.1,0.3-0.3,0.8-0.6,1.1
		L31.3,185.9z M54.2,153.4L54.2,153.4z"/>
	<path class="st0" d="M133,95.6c-0.8,0-1.4-0.2-2-0.8l-14.7-12.1c-1.3-1.1-1.4-3-0.4-4.3l31.7-38.2c1.1-1.3,3-1.4,4.3-0.4L166.7,52
		c1.3,1.1,1.4,3,0.4,4.3l-31.7,38.2c-0.6,0.7-1.3,1-2.1,1.1C133.2,95.6,133.1,95.6,133,95.6z M122.6,79.8l9.9,8.2l27.7-33.4
		l-9.9-8.2L122.6,79.8z M111.9,115.5c-7,0-12.8-5.7-12.8-12.8c0-7,5.7-12.8,12.8-12.8c7,0,12.8,5.7,12.8,12.8
		c0,6.6-5,12.1-11.6,12.7C112.7,115.5,112.4,115.5,111.9,115.5z M112.1,96.4c-0.2,0-0.4,0-0.7,0c-3.6,0.2-6.3,3.2-6.2,6.8
		c0.2,3.6,3.2,6.3,6.8,6.2c3.6-0.2,6.3-3.2,6.2-6.8C118.1,99.2,115.4,96.5,112.1,96.4z"/>
</g>
</svg>
