<?xml version="1.0" encoding="utf-8"?>
<!-- Generator: Adobe Illustrator 24.2.1, SVG Export Plug-In . SVG Version: 6.00 Build 0)  -->
<svg version="1.1" id="SvgjsSvg1018" xmlns:svgjs="http://svgjs.com/svgjs"
	 xmlns="http://www.w3.org/2000/svg" xmlns:xlink="http://www.w3.org/1999/xlink" x="0px" y="0px" viewBox="0 0 288 288"
	 style="enable-background:new 0 0 288 288;" xml:space="preserve">
<style type="text/css">
	.st0{fill:#18377B;}
</style>
<g id="SvgjsG1020">
	<path class="st0" d="M274.5,123.1l-35.6-33c-7.8-7.2-18-11.2-28.6-11.2H192v-3.7c0-16.7-13.5-30.2-30.2-30.2H30.2
		C13.5,45,0,58.5,0,75.2v135c0,3.3,2.7,6,6,6h18.8c2.9,17.5,19.5,29.2,36.9,26.3c13.5-2.3,24-12.8,26.3-26.3h112.3
		c2.9,17.5,19.5,29.2,36.9,26.3c13.5-2.3,24-12.8,26.3-26.3H282c3.3,0,6-2.7,6-6v-56.2C288,142.3,283.1,131,274.5,123.1z
		 M266.3,131.9h-35.7V98.9l0.1,0.1L266.3,131.9z M30.2,57.1h131.7c10,0,18.1,8.1,18.1,18.1v21.8l0,0v47.3l0,0v0.8H12.1V75.2
		C12.1,65.2,20.2,57.1,30.2,57.1z M56.5,230.9c-11,0-20-8.9-20-20c0-11,8.9-20,20-20s20,8.9,20,20C76.4,221.9,67.5,230.9,56.5,230.9
		z M56.5,178.8c-15.1,0-28.2,10.6-31.4,25.3h-13v-47h167.9v47H87.8C84.6,189.4,71.6,178.8,56.5,178.8z M232,230.9
		c-11,0-20-8.9-20-20c0-11,8.9-20,20-20c11,0,20,8.9,20,20l0,0C251.9,221.9,243,230.9,232,230.9L232,230.9z M276,204.2h-12.7
		c-3.7-17.3-20.8-28.3-38.1-24.6c-12.3,2.7-22,12.3-24.6,24.6H192v-60l0,0V90.9h18.2c2.8,0,5.6,0.4,8.3,1.1v39.9
		c0,6.7,5.4,12,12.1,12.1h43.7c1.2,3.2,1.8,6.6,1.7,10.1V204.2z"/>
	<path class="st0" d="M56.5,193.7c-9.5,0-17.1,7.7-17.1,17.1c0,9.5,7.7,17.1,17.1,17.1s17.1-7.7,17.1-17.1l0,0
		C73.6,201.4,65.9,193.8,56.5,193.7z M56.5,216c-2.8,0-5.1-2.3-5.1-5.1c0-2.8,2.3-5.1,5.1-5.1c2.8,0,5.1,2.3,5.1,5.1l0,0
		C61.5,213.7,59.2,216,56.5,216z M232,193.7c-9.5,0-17.1,7.7-17.1,17.1c0,9.5,7.7,17.1,17.1,17.1c9.5,0,17.1-7.7,17.1-17.1l0,0
		C249.1,201.4,241.4,193.8,232,193.7z M232,216c-2.8,0-5.1-2.3-5.1-5.1s2.3-5.1,5.1-5.1c2.8,0,5.1,2.3,5.1,5.1l0,0
		C237,213.7,234.8,216,232,216z M83.3,117.7c1.1,1.2,2.7,1.8,4.3,1.8l0,0c1.6,0,3.1-0.6,4.3-1.7l29-29c2.3-2.3,2.3-6.2,0-8.5
		s-6.2-2.3-8.5,0L87.6,105l-12-12.2c-2.3-2.4-6.1-2.4-8.5-0.1c-2.4,2.3-2.4,6.1-0.1,8.5L83.3,117.7z"/>
</g>
</svg>
