<?xml version="1.0" encoding="utf-8"?>
<!-- Generator: Adobe Illustrator 24.2.1, SVG Export Plug-In . SVG Version: 6.00 Build 0)  -->
<svg version="1.1" id="SvgjsSvg1051" xmlns:svgjs="http://svgjs.com/svgjs"
	 xmlns="http://www.w3.org/2000/svg" xmlns:xlink="http://www.w3.org/1999/xlink" x="0px" y="0px" viewBox="0 0 216 216"
	 style="enable-background:new 0 0 216 216;" xml:space="preserve">
<style type="text/css">
	.st0{fill:#18377B;}
</style>
<g id="SvgjsG1091">
	<path class="st0" d="M204.5,142.1L96.3,34.2c1.3-1.5,1.3-3.8,0-5.5L85.8,18.7c-1.7-1.7-4.4-1.7-6.1,0l0,0L34.1,64.5
		c-1.7,1.7-1.7,4.4,0,6.1l0,0l10.2,10.1c0.9,0.8,2.1,1.2,3.3,1.1c0.9,0,1.7-0.3,2.4-0.9l108,108.1c12.9,12.8,33.8,12.8,46.7-0.1
		C217.5,176,217.5,155,204.5,142.1L204.5,142.1z M82.1,100.9L56.2,75l34.5-34.5l47.6,47.6c-8,1.1-15.7,3.3-23,6.5
		C104.9,99.5,93.5,101.6,82.1,100.9z M43.3,67.2l39.3-39.3l3.9,3.9L47.6,71.2L43.3,67.2z M198.6,182.9c-9.5,9.5-24.9,9.6-34.4,0.1
		l-0.1-0.1l-73.3-73.4c9.6-0.7,19-3.1,27.7-7c8.6-3.9,18-6.1,27.5-6.5l52.4,52.4c9.5,9.5,9.5,24.9,0,34.4l0,0L198.6,182.9z
		 M19.5,86.2c-2.9,5.8-17.7,35-17.7,45.2c0,11.9,9.7,21.6,21.6,21.6s21.6-9.7,21.6-21.6c0-10.1-14.8-39.3-17.7-45.2
		c-1.3-2.1-4.1-2.7-6.2-1.4C20.3,85.2,19.9,85.7,19.5,86.2z M23.3,144.3c-7.2,0-12.9-5.8-12.9-12.9c2.9-11.7,7.2-22.9,12.9-33.5
		c5.8,10.5,10.1,21.9,12.9,33.5C36.3,138.5,30.5,144.2,23.3,144.3L23.3,144.3z"/>
</g>
</svg>
