<?xml version="1.0" encoding="utf-8"?>
<!-- Generator: Adobe Illustrator 24.2.1, SVG Export Plug-In . SVG Version: 6.00 Build 0)  -->
<svg version="1.1" id="SvgjsSvg1019" xmlns:svgjs="http://svgjs.com/svgjs"
	 xmlns="http://www.w3.org/2000/svg" xmlns:xlink="http://www.w3.org/1999/xlink" x="0px" y="0px" viewBox="0 0 288 288"
	 style="enable-background:new 0 0 288 288;" xml:space="preserve">
<style type="text/css">
	.st0{fill:#0384CE;}
</style>
<g id="SvgjsG1021">
	<g>
		<path class="st0" d="M85.3,168.5c-2-0.7-4.1-1.2-6.3-1.4c-16.8-2-32.1,9.9-34.2,26.8l-6.5,53.7h211.4l-6.5-53.7
			c-0.3-2.1-0.7-4.2-1.4-6.3c-5.5-16-23-24.5-39-19c-18.3,6.3-37.9,9.5-58.7,9.5S103.6,174.8,85.3,168.5z M144,159.9
			c18.8,0,36.4-2.8,52.8-8.5c25.4-8.8,53.1,4.8,61.9,30.2c1.1,3.2,1.9,6.6,2.3,10l6.5,53.7c1.2,9.9-5.8,18.8-15.7,20
			c-0.7,0.1-1.4,0.1-2.2,0.1H38.3c-9.9,0-18-8.1-18-18c0-0.7,0-1.5,0.1-2.2l6.5-53.7c3.3-26.7,27.5-45.7,54.2-42.4
			c3.4,0.4,6.7,1.2,10,2.3C107.6,157.1,125.2,159.9,144,159.9z"/>
		<path class="st0" d="M144,148.5c-34.8,0-63-28.2-63-63s28.2-63,63-63s63,28.2,63,63S178.8,148.5,144,148.5z M144,130.5
			c24.9,0,45-20.1,45-45s-20.1-45-45-45s-45,20.1-45,45S119.1,130.5,144,130.5z"/>
	</g>
</g>
</svg>
