<?xml version="1.0" encoding="utf-8"?>
<!-- Generator: Adobe Illustrator 24.2.1, SVG Export Plug-In . SVG Version: 6.00 Build 0)  -->
<svg version="1.1" id="SvgjsSvg1041" xmlns:svgjs="http://svgjs.com/svgjs"
	 xmlns="http://www.w3.org/2000/svg" xmlns:xlink="http://www.w3.org/1999/xlink" x="0px" y="0px" viewBox="0 0 175.8 180.1"
	 style="enable-background:new 0 0 175.8 180.1;" xml:space="preserve">
<style type="text/css">
	.st0{fill:#18377B;}
</style>
<g id="SvgjsG1043">
	<path class="st0" d="M164.2,96.9c0.7-3.6,1.2-7.2,1.5-10.9c5.1-2.3,11.6-5.4,9.9-11.3c-1-2.6-3.3-4.5-6.1-4.9
		c-1.5-0.4-3.1-0.6-4.5-0.9c-0.5-3.4-1.3-6.8-2.3-10.1c-0.7-2.2-1.5-4.3-2.4-6.3l-1.3-3c0,0,0-0.4-0.4-0.7c1.8-1.3,3.6-2.7,5.4-4.1
		c4-2.2,5.7-7,4.1-11.2c-2.1-3.2-5.9-4.7-9.6-3.9c-4.1,0.5-8.2,1.1-12.3,1.8c-4.6-4.7-9.9-8.8-15.5-12.2c-1.1-4.5-2.6-8.8-4.5-13
		c-1.2-2.2-4-2.9-6.1-1.6c-0.3,0.2-0.6,0.4-0.9,0.7l-6.4,6.5c-8-2.1-16.4-2.7-24.6-1.8c-0.9,0.1-1.8,0.5-2.5,1.1L81,10.8
		c-4-6-8.1-12.2-16.5-10.5c-7.2,1.5-11.5,9-13.8,16.3c-9.7,4.1-18.4,10-25.7,17.6c-4.9-0.6-9.7-1.3-14.6-1.8c-4.1-0.4-8.5,0.4-9.5,5
		s3.1,10.3,4.5,14.2l3.7,8.5c-4.6,14-5.4,29-2.2,43.4c-1.5,1.6-2.9,3.3-4.5,4.9c-2.6,2.5-3.1,6.4-1.3,9.4c2.4,2.6,5.8,4,9.4,4
		l3.4,0.3c6.6,11.7,16,21.6,27.5,28.8c0,0.4,0,0.8,0,1.2c-0.9,3.7,0.6,7.6,3.8,9.8c3.3,1.6,7.1,1.4,10.2-0.5c1.1-0.6,2-1.4,2.9-2.3
		c6.2,2.1,12.6,3.5,19.2,4c1.6,7.8,4.7,16.8,11.8,16.8c4.9,0,7.8-4.5,10.2-7.9c2.7-3.8,5-7.9,7-12.1c5.6-1.7,11-3.9,16.2-6.6
		c4.4,3.6,10.2,5.1,15.8,4.1c3.6-1.2,5.7-5,4.8-8.7c-0.6-2.9-1.3-5.9-2.2-8.7c5-4.9,9.4-10.4,13-16.3c3.8,1.9,7.9,3,12.1,3.4
		c3.7-0.1,7-2.3,8.5-5.6c1.7-4.5-1.1-9.5-3.2-13.5C169.2,104.2,166.8,100.5,164.2,96.9z M39.1,87.9c-3.1,1.1-4.7,4.4-3.6,7.5
		c0.4,1,1,2,1.9,2.7c4.2,4-2.2,10.3-6.3,6.3c-6-5.5-6.4-14.9-0.9-21c1.3-1.4,2.8-2.5,4.5-3.3c5.2-2.3,9.8,5.4,4.5,7.9V87.9z
		 M67.6,74.9c1.9-2.8,5.3-4.1,8.6-3.3c2.4,0.7,3.8,3.2,3.1,5.5c-0.4,1.6-1.7,2.8-3.3,3c0.6,2.4-0.8,4.9-3.2,5.5c-1.9,0.5-4-0.3-5-2
		C65.9,81.1,65.8,77.6,67.6,74.9z M52.1,63.3c-2.1,1.3-4.9,0.5-6.2-1.6c0,0,0,0,0,0c-2-3.9-1.6-8.6,1-12.1c2.8-3.4,7.4-4.9,11.7-3.7
		c5.6,1.3,3.2,10-2.4,8.6c-1.6-0.4-3.5,1-2.7,2.8C54.8,59.4,54.1,62.1,52.1,63.3L52.1,63.3z M63.8,119.3c-4.7,0.2-8.6-3.4-8.8-8.1
		c0-0.7,0-1.5,0.2-2.2c0.7-2.4,3.1-3.8,5.5-3.2c0,0,0,0,0,0c1.9,0.6,3.2,2.5,3.2,4.5c2.5,0,4.5,2,4.5,4.5
		C68.3,117.3,66.3,119.3,63.8,119.3C63.8,119.3,63.7,119.3,63.8,119.3L63.8,119.3z M99.5,139.8c-5.2,7.5-15.5,9.4-23,4.2
		c-1.2-0.8-2.3-1.8-3.2-2.9c-3.7-4.5,2.7-10.8,6.4-6.3c2.3,3.4,7,4.3,10.4,2c0.6-0.4,1.2-0.9,1.6-1.5
		C95,130.6,102.9,135.1,99.5,139.8L99.5,139.8z M112.6,128.4c-4.5,3.3-9.3,0.8-12.9-2.3c-1.6-1.9-1.3-4.8,0.7-6.3
		c1.4-1.2,3.4-1.3,5.1-0.4c0,0,0-0.4,0-0.7c1.3-2.1,4-2.8,6.2-1.6c3.3,1.7,4.6,5.8,2.8,9.1C113.9,127,113.3,127.8,112.6,128.4z
		 M119.7,100c-4.5,3.6-10.8-2.7-6.3-6.4c2.5-1.5,3.3-4.7,1.8-7.2c-0.7-1.1-1.7-1.9-2.9-2.3c-5.5-1.8-3.1-10.5,2.4-8.7
		c7.5,2.3,11.7,10.3,9.4,17.8c-0.8,2.6-2.4,5-4.5,6.7H119.7z M126.3,64c-2.7,4.9-9.9,0.9-8-4c0-0.2,0-0.4,0-0.6c0,0.2,0,0.3,0,0.5
		c-0.1-0.2-0.2-0.4-0.4-0.5c-1.1-0.7-3.3,0-4.5,0c-2.4,0.7-4.9-0.8-5.5-3.2c-0.7-2.4,0.8-4.9,3.2-5.5c4.4-1.3,9.2-0.6,13,2
		c3.2,2.8,4,7.4,2,11.1L126.3,64z M142.1,99.5c-3.7,3.8-9.3-1.2-7.1-5.3c-2.5-0.3-4.3-2.5-4-5c0.3-2.5,2.5-4.3,5-4
		c4.6-0.1,8.3,3.6,8.4,8.2c0,2.3-0.9,4.5-2.5,6.1L142.1,99.5z M166.1,118.3c-0.6,0.6-2.7-0.3-3.2-0.4c-1.6-0.6-3-1.3-4.5-1.8
		c1.2-2.5,2.2-5,3.1-7.6c1.4,2.3,2.6,4.7,3.7,7.1c-0.1,0.3,1.1,2.4,0.7,2.7L166.1,118.3z M118.4,59.8L118.4,59.8c0-0.2,0-0.4,0-0.6
		c-0.1,0.2-0.2,0.5-0.2,0.7L118.4,59.8z"/>
</g>
</svg>
