<?xml version="1.0" encoding="utf-8"?>
<!-- Generator: Adobe Illustrator 24.2.1, SVG Export Plug-In . SVG Version: 6.00 Build 0)  -->
<svg version="1.1" id="SvgjsSvg1115" xmlns:svgjs="http://svgjs.com/svgjs"
	 xmlns="http://www.w3.org/2000/svg" xmlns:xlink="http://www.w3.org/1999/xlink" x="0px" y="0px" viewBox="0 0 276 246"
	 style="enable-background:new 0 0 276 246;" xml:space="preserve">
<style type="text/css">
	.st0{fill-rule:evenodd;clip-rule:evenodd;fill:#18377B;}
</style>
<g id="SvgjsG1117">
	<path class="st0" d="M276,216L276,216c0,16.6-13.4,30-30,30l0,0H30l0,0c-16.6,0-30-13.4-30-30V42c0-13.3,10.7-24,24-24l0,0h121
		l48.6-17.6c3.1-1.1,6.5,0.5,7.6,3.5l5.1,14.1H228c13.3,0,24,10.7,24,24v12l0,0c13.3,0,24,10.7,24,24V216z M24,30L24,30
		c-6.6,0-12,5.4-12,12s5.4,12,12,12h20.7l0,0h1.1c0.1,0,0.1-0.1,0.2-0.1L111.9,30H24z M198.5,31l-6.4-17.5h0l0,0L179.8,18h0
		l-33.1,12h-0.1L80.4,54h126.4L198.5,31z M240,42c0-6.6-5.4-12-12-12h-17.3l8.7,24H240l0,0V42z M252,66H24l0,0
		c-4.4,0-8.5-1.3-12-3.3V216c0,9.9,8.1,18,18,18h216c9.9,0,18-8.1,18-18v-42h-24c-13.3,0-24-10.7-24-24s10.7-24,24-24h24V78
		C264,71.3,258.6,66,252,66z M264,162v-24h-24c-6.6,0-12,5.4-12,12c0,6.6,5.4,12,12,12H264z M240,144h12v12h-12V144z"/>
</g>
</svg>
